<?xml version="1.0" encoding="UTF-8"?>
<svg width="603px" height="95px" viewBox="0 0 603 95" version="1.1" xmlns="http://www.w3.org/2000/svg" xmlns:xlink="http://www.w3.org/1999/xlink">
    <!-- Generator: Sketch 51.1 (57501) - http://www.bohemiancoding.com/sketch -->
    <title>svg_logo</title>
    <desc>Created with Sketch.</desc>
    <defs></defs>
    <g id="Page-1" stroke="none" stroke-width="1" fill="none" fill-rule="evenodd">
        <g id="svg_logo" fill="#fff" fill-rule="nonzero">
            <path d="M404.3,94.9 C400.3,94.9 396.4,94.9 392.5,94.9 C391.6,94.9 391.2,94.4 390.8,93.7 C388.9,90.4 387,87.1 385.3,83.6 C380,73 375.5,62.1 370.7,51.3 C370.4,50.6 370.2,49.8 369.5,49.1 C368.9,49.8 368.6,50.6 368.3,51.3 C361.9,65.2 355.5,79.1 349.2,93 C348.6,94.4 347.8,94.9 346.3,94.8 C343.3,94.7 340.3,94.8 337.3,94.8 C337.2,93.9 337.7,93.3 337.9,92.7 C346.3,74.5 354.6,56.3 363,38.2 C363.7,36.8 363.7,35.6 363.1,34.2 C361.2,30 359.4,25.8 357.6,21.6 C357.2,20.6 356.6,19.6 356.1,18.7 C353.7,13.9 349.9,11.4 344.5,11.2 C344.3,11.2 344.1,11.2 343.9,11.2 C342.9,11 341.7,11.7 341,10.8 C340.4,10 340.8,8.8 340.8,7.8 C340.8,5.9 340.8,4 340.8,2.1 C340.8,1.2 341.1,0.9 342,0.9 C346.2,0.9 350.5,1.1 354.6,2.2 C358.3,3.1 361.1,5.3 363.3,8.3 C365.7,11.6 367.6,15.3 369.2,19 C376.1,34.6 382.9,50.3 389.8,65.9 C393.8,75 398.2,83.8 403.2,92.4 C403.5,93 403.9,93.6 404.2,94.2 C404.4,94.3 404.3,94.5 404.3,94.9 Z" id="Shape"></path>
            <path d="M488.5,80.1 C488.5,83.3 488.5,86.5 488.5,89.7 C488.5,91.6 488.5,91.6 486.6,91.6 C485.1,91.6 483.6,91.6 482.1,91.6 C481.4,91.6 481.1,91.3 481.1,90.6 C481.1,90.1 481.1,89.6 481.1,89.2 C481.1,61.1 481.1,33 481.1,4.9 C481.1,4.5 481.1,4.1 481.1,3.7 C481.1,3 481.3,2.5 482.1,2.6 C484.1,2.6 486.2,2.6 488.3,2.6 C489.1,2.6 489.4,2.9 489.4,3.7 C489.4,4.2 489.4,4.7 489.4,5.1 C489.4,16.3 489.4,27.5 489.4,38.7 C489.4,39.4 489.4,40 489.4,41.2 C490.1,40.3 490.5,39.8 490.9,39.2 C493,36.3 495.6,33.9 498.4,31.7 C506.8,25.3 521.2,24.9 530.7,33.3 C537.3,39.2 540.7,46.6 541.9,55.2 C543,63.1 541.6,70.6 537.5,77.5 C531.5,87.5 522.7,93.1 510.8,92.7 C502,92.4 495.2,88.3 489.9,81.4 C489.5,80.9 489.2,80.4 488.8,79.9 C488.7,80 488.6,80.1 488.5,80.1 Z M489.3,60.2 C489.3,62.7 489.4,65.2 489.5,67.8 C489.3,71.4 490.6,74.3 492.8,77 C494.5,79 496.5,80.7 498.7,82 C507.7,87.5 518.1,86.6 525.5,79.5 C537.2,68.3 535.8,51 526.7,41.2 C520.2,34.3 510.9,32.4 502.7,36.2 C496.7,39 492.6,43.6 489.7,49.4 C489.3,50.1 489.3,50.7 489.3,51.4 C489.3,54.3 489.3,57.3 489.3,60.2 Z" id="Combined-Shape"></path>
            <path d="M204.1,59.1 C199.7,63.2 195.5,67.1 191.2,71.1 C190.5,71.7 190.5,72.5 190.5,73.3 C190.5,78.6 190.5,83.8 190.5,89.1 C190.5,89.6 190.5,90.1 190.5,90.5 C190.5,91.3 190.2,91.6 189.4,91.6 C187.3,91.6 185.3,91.6 183.2,91.6 C182.4,91.6 182.1,91.2 182.2,90.5 C182.2,90 182.2,89.5 182.2,89.1 C182.2,61.1 182.2,33.2 182.2,5.2 C182.2,2.4 181.9,2.7 184.7,2.6 C186.3,2.6 187.8,2.6 189.4,2.6 C190.2,2.6 190.5,2.9 190.5,3.7 C190.5,4.2 190.5,4.8 190.5,5.3 C190.5,23.6 190.5,41.9 190.5,60.3 C190.5,61 190.3,61.8 190.7,62.6 C191.5,62.4 191.9,61.7 192.4,61.2 C203.2,50.7 214,40.1 224.8,29.5 C225.8,28.5 226.8,28.1 228.2,28.1 C230.4,28.2 232.7,28.1 235.1,28.1 C234.9,29 234.2,29.4 233.7,29.9 C226.3,37.4 218.8,44.8 211.4,52.2 C211.1,52.5 210.7,52.9 210.4,53.2 C209.9,53.7 209.7,54.2 210.2,54.8 C210.6,55.3 210.9,55.8 211.3,56.3 C219.2,67.3 227.2,78.4 235.1,89.4 C235.5,89.9 236,90.4 236.1,91.4 C233.4,91.4 230.8,91.4 228.1,91.4 C227.1,91.4 226.9,90.6 226.5,90 C222.2,84.1 218,78.1 213.7,72.2 C210.8,68.2 208,64.2 205.1,60.2 C204.8,60.1 204.5,59.7 204.1,59.1 Z" id="Shape"></path>
            <path d="M247.1,40.6 C246.1,39.2 245.5,37.7 244.7,36.3 C244.2,35.4 244.5,35 245.3,34.5 C248.9,32.2 252.6,30.3 256.7,28.9 C263.7,26.6 270.8,26.2 277.9,28.4 C286.5,31 292.5,38.4 293.4,47.4 C293.7,49.9 293.8,52.3 293.8,54.8 C293.8,63.1 293.8,71.3 293.8,79.6 C293.8,80.4 293.8,81.1 293.9,81.9 C294,83 294.5,83.9 295.7,84.2 C296.6,84.4 296.9,84.9 296.9,85.7 C296.8,87.3 296.8,88.8 296.9,90.4 C296.9,91.3 296.6,91.8 295.7,91.9 C294,92.1 292.3,92.1 290.6,91.5 C288.2,90.6 287.1,88.8 286.9,86.3 C286.8,84.7 286.9,83.2 286.5,81.6 C285.9,81.7 285.7,82.2 285.4,82.5 C280.5,88 274.3,91.1 267.2,92.3 C263.1,93 259,93.1 255,91.9 C248.1,89.8 243.1,85.5 241,78.5 C238.6,70.7 241.4,63.4 248.2,58.8 C252.3,56 256.9,54.6 261.8,54.1 C269.6,53.3 277.2,54.2 284.6,56.7 C284.9,56.8 285.1,56.9 285.5,56.6 C285.6,52.3 285.8,47.8 284.2,43.6 C281.7,37 276.7,33.7 269.9,33.1 C263.4,32.5 257.5,34.5 251.9,37.6 C250.1,38.7 248.7,39.7 247.1,40.6 Z M285.3,68.2 C285.3,66.8 285.3,65.5 285.3,64.1 C285.4,62.8 284.9,62.3 283.7,61.9 C276.7,59.6 269.5,58.5 262.1,59.6 C258.4,60.2 254.9,61.4 252,63.8 C248.8,66.4 247.4,69.8 247.9,73.9 C248.7,80.1 252.4,83.9 258.3,85.8 C261.1,86.7 263.9,86.6 266.8,86.2 C271.9,85.5 276.6,83.8 280.5,80.3 C283.7,77.5 286,74.3 285.3,69.8 C285.2,69.3 285.3,68.7 285.3,68.2 Z" id="Combined-Shape"></path>
            <path d="M456,81.2 C455.2,82.1 454.6,82.7 454.1,83.3 C445.8,91.5 435.8,94.6 424.4,92 C417.3,90.3 412.4,85.6 410.3,78.5 C407.9,70.2 411.3,62.4 419.1,58.1 C424,55.4 429.3,54.3 434.8,54.1 C441.2,53.9 447.5,54.8 453.6,56.9 C453.9,57 454.2,57.1 454.8,57.3 C455,52.5 455.2,47.9 453.4,43.5 C452.6,41.5 451.5,39.7 450,38.2 C447,35.2 443.3,33.8 439.2,33.5 C433.8,33.1 428.8,34.3 423.9,36.7 C421.4,37.9 419.1,39.3 416.6,41 C415.7,39.3 414.8,37.7 414,36.1 C413.8,35.8 413.9,35.4 414.2,35.2 C414.4,35.1 414.5,35 414.7,34.9 C422.8,29.6 431.5,26.5 441.4,27.5 C448.6,28.2 454.7,31 459,37.1 C461.9,41.2 463.1,45.9 463.2,50.8 C463.3,60.4 463.2,69.9 463.3,79.5 C463.3,80.2 463.3,80.9 463.3,81.5 C463.4,82.9 463.9,84.1 465.5,84.4 C466.2,84.5 466.4,84.9 466.4,85.5 C466.4,87.3 466.4,89.1 466.4,90.8 C466.4,91.5 466.1,91.8 465.5,91.9 C463.4,92.3 461.3,92.3 459.3,91.2 C457.5,90.3 456.7,88.6 456.4,86.7 C456.1,85 456.1,83.3 456,81.2 Z M454.9,68.3 C454.9,67 454.9,65.6 454.8,64.2 C454.8,62.5 454.8,62.4 453.2,61.9 C446.2,59.6 439,58.5 431.6,59.6 C427.9,60.2 424.4,61.5 421.4,64 C417.8,67.1 416.7,71.1 417.8,75.6 C419.2,81.2 424,85.4 429.8,86.2 C433,86.6 436.1,86.4 439.2,85.7 C444.9,84.4 449.8,81.8 453.3,76.9 C454.3,75.5 455,74 454.9,72.2 C454.9,70.9 454.9,69.6 454.9,68.3 Z" id="Combined-Shape"></path>
            <path d="M114.3,81.5 C113.5,81.7 113.2,82.3 112.8,82.7 C107.7,88.2 101.4,91.3 94.1,92.4 C89.8,93 85.5,93 81.4,91.5 C76.2,89.6 72.1,86.3 69.7,81.2 C66.3,73.8 67.3,64.8 75.5,59.1 C79.7,56.2 84.4,54.7 89.5,54.2 C97.3,53.4 104.9,54.3 112.3,56.8 C112.5,56.9 112.7,56.9 112.9,56.9 C113.4,56.5 113.2,56 113.2,55.6 C113.1,52.7 113.3,49.9 112.8,47 C111.4,39.1 105.5,33.8 97.5,33.2 C91,32.7 85.1,34.7 79.5,37.8 C78,38.6 76.6,39.6 75,40.5 C73.9,39 73.2,37.3 72.3,35.8 C72,35.4 72.2,35 72.6,34.8 C72.8,34.7 72.9,34.6 73.1,34.5 C81.1,29.4 89.6,26.3 99.2,27.1 C106.6,27.8 112.8,30.5 117.2,36.7 C120,40.7 121.3,45.3 121.4,50.2 C121.5,59.8 121.5,69.5 121.5,79.1 C121.5,79.9 121.5,80.6 121.6,81.4 C121.8,82.7 122.2,83.8 123.7,84.1 C124.5,84.2 124.6,84.7 124.6,85.4 C124.6,87 124.6,88.7 124.6,90.3 C124.6,91.1 124.3,91.6 123.5,91.7 C121.7,92 120,92 118.2,91.3 C116.3,90.6 115.2,89.3 114.7,87.3 C114.5,86.2 114.4,85.1 114.4,84 C114.4,83.3 114.3,82.5 114.3,81.5 Z M113.2,68.5 C113.2,67 113.1,65.4 113.2,63.9 C113.3,62.7 112.8,62.3 111.7,61.9 C104.6,59.6 97.4,58.5 89.9,59.6 C86.2,60.2 82.7,61.5 79.8,63.9 C76.2,66.9 75,70.8 76,75.3 C77.2,81.1 82.1,85.5 88.1,86.3 C91.5,86.8 94.7,86.5 97.9,85.7 C103.5,84.3 108.2,81.6 111.6,76.9 C112.6,75.6 113.3,74.1 113.2,72.4 C113.2,71.1 113.2,69.8 113.2,68.5 Z" id="Combined-Shape"></path>
            <path d="M41.1,94.9 C37,94.9 33.2,94.9 29.5,94.9 C28.7,94.9 28.5,94.4 28.2,93.8 C27,90.8 26.2,87.7 25.7,84.5 C24.8,79.2 24.6,73.9 24.6,68.6 C24.6,60.1 24.6,51.7 24.6,43.2 C24.6,42.7 24.6,42.2 24.6,41.8 C24.6,41.1 24.4,40.7 23.6,40.7 C17.9,40.8 12.3,40.3 6.7,41.6 C4.6,42.1 2.7,42.9 0.5,43.5 C0.5,40.1 0.5,36.8 0.5,33.6 C0.5,32.9 0.9,32.6 1.5,32.5 C2.8,32.1 4.1,31.7 5.4,31.4 C9,30.6 12.7,30.4 16.4,30.4 C30.7,30.4 45.1,30.4 59.4,30.4 C59.7,30.4 60.1,30.4 60.4,30.4 C61,30.4 61.4,30.6 61.4,31.3 C61.4,34.1 61.4,36.9 61.4,39.7 C61.4,40.4 61,40.7 60.4,40.6 C59.9,40.6 59.4,40.6 59,40.6 C52.1,40.6 45.2,40.6 38.3,40.6 C36.5,40.6 36.5,40.6 36.5,42.4 C36.5,54.1 36.4,65.8 36.5,77.5 C36.6,83.5 37.7,89.3 41.1,94.9 Z" id="Shape"></path>
            <path d="M596.3,40.4 C595.5,39.7 594.7,39 593.9,38.4 C589.7,35.2 584.8,33.7 579.6,33.3 C576.4,33 573.2,33.1 570.1,34.1 C565.9,35.4 562.9,37.9 561.8,42.4 C561.5,43.9 561.5,45.4 561.7,46.9 C562,48.9 563,50.5 564.7,51.6 C566.6,52.9 568.7,53.6 570.9,54.2 C576.5,55.8 582.2,56.9 587.7,58.7 C590.2,59.5 592.6,60.4 594.9,61.7 C600.8,65 602.7,69.7 602,76.1 C601.2,83 597.2,87.5 591,90.3 C586.2,92.5 581,93 575.8,92.8 C568.4,92.5 561.5,90.7 555.2,86.7 C553.9,85.9 552.8,84.9 551.5,84.1 C550.8,83.6 550.7,83.1 551.2,82.4 C552,81.2 552.9,80.1 553.6,78.8 C554.1,78 554.6,77.8 555.4,78.5 C556.9,79.7 558.5,80.8 560.1,81.8 C567.4,86.1 575.2,87.6 583.6,85.9 C585.8,85.5 587.8,84.6 589.6,83.4 C593.6,80.6 594.5,76.8 593.8,72.6 C593.5,70.9 592.5,69.5 591.1,68.4 C589.1,66.8 586.8,65.8 584.3,65.1 C580.7,63.9 576.9,63.2 573.2,62.2 C570,61.4 566.9,60.5 563.8,59.4 C562.1,58.7 560.4,58 558.8,57 C555.6,54.9 553.9,52 553.6,48.2 C553,39.1 557.3,32.1 566,29.2 C576.2,25.8 586.2,26.6 595.6,32.2 C597,33 598.3,34.1 599.5,35.2 C599.9,35.6 600.2,36 599.7,36.6 C598.9,37.5 598.2,38.4 597.5,39.3 C597.1,39.4 596.7,39.9 596.3,40.4 Z" id="Shape"></path>
            <path d="M147.5,42.5 C148,41.7 148.4,40.9 148.9,40.1 C152.8,34.1 157.9,29.9 164.9,28.2 C166.4,27.9 167.9,27.7 169.4,27.7 C170.8,27.7 170.9,27.8 171,29.2 C171,30.8 171,32.5 171,34.1 C171,35.1 170.7,35.4 169.7,35.5 C166.4,35.8 163.2,36.4 160.2,37.8 C154.6,40.4 150.7,44.5 148.3,50.2 C147.8,51.4 147.6,52.5 147.6,53.8 C147.6,65.5 147.6,77.2 147.6,88.9 C147.6,89.4 147.6,89.9 147.6,90.3 C147.7,91.2 147.4,91.7 146.4,91.6 C144.4,91.5 142.4,91.6 140.5,91.6 C139.7,91.6 139.4,91.3 139.4,90.5 C139.4,90 139.4,89.5 139.4,89.1 C139.4,69.6 139.4,50 139.4,30.5 C139.4,30.2 139.4,30 139.4,29.7 C139.4,28.2 139.4,28.1 141,28.1 C142.6,28.1 144.3,28.1 145.9,28.1 C146.9,28.1 147.2,28.5 147.2,29.4 C147.2,33.1 147.2,36.8 147.2,40.5 C147.2,41.1 147.2,41.8 147.2,42.4 C147.3,42.4 147.4,42.4 147.5,42.5 Z" id="Shape"></path>
        </g>
    </g>
</svg>
